<?xml version="1.0" standalone="no"?><!DOCTYPE svg PUBLIC "-//W3C//DTD SVG 1.1//EN" "http://www.w3.org/Graphics/SVG/1.1/DTD/svg11.dtd"><svg xmlns:xlink="http://www.w3.org/1999/xlink" xmlns="http://www.w3.org/2000/svg" version="1.1" width="200" height="200" viewBox="0 0 200 200"><defs><style type="text/css"><![CDATA[
@font-face {
  font-family: "ifont";
  src: url("//at.alicdn.com/t/font_1442373896_4754455.eot?#iefix") format("embedded-opentype"), url("//at.alicdn.com/t/font_1442373896_4754455.woff") format("woff"), url("//at.alicdn.com/t/font_1442373896_4754455.ttf") format("truetype"), url("//at.alicdn.com/t/font_1442373896_4754455.svg#ifont") format("svg");
}

]]></style></defs><g class="transform-group"><g transform="scale(0.1953125, 0.1953125)"><path d="M985.077525 55.69037 73.690326 55.69037l0 411.876652 911.387199 0L985.077525 55.69037zM879.917464 375.552352 183.232185 375.552352l0-65.724911 696.685279 0L879.917464 375.552352zM879.917464 213.42995 183.232185 213.42995 183.232185 152.086837l696.685279 0L879.917464 213.42995zM153.291269 533.291932 113.125477 511.38397 43.018769 655.979182 135.034463 708.558701 175.663812 629.689423 323.4456 629.689423 56.164161 905.706827 152.560628 945.141978 459.277218 629.689423 638.925784 629.689423 380.407939 901.32503 476.804407 945.141978 774.757402 629.689423 879.917464 629.689423 866.773096 848.772117 752.84944 848.772117 752.84944 945.141978 976.314954 945.141978 989.459323 533.291932Z" fill="#56abe4"></path></g></g></svg>